<svg width="721" height="606" viewBox="0 0 721 606" fill="none" xmlns="http://www.w3.org/2000/svg">
<path fill-rule="evenodd" clip-rule="evenodd" d="M498.616 274.308C498.616 398.19 398.19 498.616 274.308 498.616C150.426 498.616 50 398.19 50 274.308C50 150.426 150.426 50 274.308 50C398.19 50 498.616 150.426 498.616 274.308ZM478.724 457.23C428.498 513.32 355.525 548.616 274.308 548.616C122.812 548.616 0 425.804 0 274.308C0 122.812 122.812 0 274.308 0C425.804 0 548.616 122.812 548.616 274.308C548.616 322.239 536.323 367.298 514.718 406.506L721 555.343L684.609 605.78L478.724 457.23Z" fill="url(#paint0_linear_0_1)"/>
<path d="M99.956 262H95.5241L108.342 227.091H112.706L125.524 262H121.092L110.661 232.614H110.388L99.956 262ZM101.592 248.364H119.456V252.114H101.592V248.364ZM146.916 251.295V235.818H150.939V262H146.916V257.568H146.643C146.03 258.898 145.075 260.028 143.78 260.96C142.484 261.881 140.848 262.341 138.871 262.341C137.234 262.341 135.78 261.983 134.507 261.267C133.234 260.54 132.234 259.449 131.507 257.994C130.78 256.528 130.416 254.682 130.416 252.455V235.818H134.439V252.182C134.439 254.091 134.973 255.614 136.041 256.75C137.121 257.886 138.496 258.455 140.166 258.455C141.166 258.455 142.183 258.199 143.217 257.688C144.263 257.176 145.138 256.392 145.842 255.335C146.558 254.278 146.916 252.932 146.916 251.295ZM169.693 235.818V239.227H156.125V235.818H169.693ZM160.08 229.545H164.102V254.5C164.102 255.636 164.267 256.489 164.597 257.057C164.938 257.614 165.369 257.989 165.892 258.182C166.426 258.364 166.989 258.455 167.58 258.455C168.023 258.455 168.386 258.432 168.67 258.386C168.955 258.33 169.182 258.284 169.352 258.25L170.17 261.864C169.898 261.966 169.517 262.068 169.028 262.17C168.54 262.284 167.92 262.341 167.17 262.341C166.034 262.341 164.92 262.097 163.83 261.608C162.75 261.119 161.852 260.375 161.136 259.375C160.432 258.375 160.08 257.114 160.08 255.591V229.545ZM186.099 262.545C183.736 262.545 181.662 261.983 179.878 260.858C178.105 259.733 176.719 258.159 175.719 256.136C174.73 254.114 174.236 251.75 174.236 249.045C174.236 246.318 174.73 243.937 175.719 241.903C176.719 239.869 178.105 238.29 179.878 237.165C181.662 236.04 183.736 235.477 186.099 235.477C188.463 235.477 190.531 236.04 192.304 237.165C194.088 238.29 195.474 239.869 196.463 241.903C197.463 243.937 197.963 246.318 197.963 249.045C197.963 251.75 197.463 254.114 196.463 256.136C195.474 258.159 194.088 259.733 192.304 260.858C190.531 261.983 188.463 262.545 186.099 262.545ZM186.099 258.932C187.895 258.932 189.372 258.472 190.531 257.551C191.69 256.631 192.548 255.42 193.105 253.92C193.662 252.42 193.94 250.795 193.94 249.045C193.94 247.295 193.662 245.665 193.105 244.153C192.548 242.642 191.69 241.42 190.531 240.489C189.372 239.557 187.895 239.091 186.099 239.091C184.304 239.091 182.827 239.557 181.668 240.489C180.509 241.42 179.651 242.642 179.094 244.153C178.537 245.665 178.259 247.295 178.259 249.045C178.259 250.795 178.537 252.42 179.094 253.92C179.651 255.42 180.509 256.631 181.668 257.551C182.827 258.472 184.304 258.932 186.099 258.932ZM204.104 262V235.818H207.99V239.909H208.331C208.876 238.511 209.757 237.426 210.973 236.653C212.189 235.869 213.649 235.477 215.354 235.477C217.081 235.477 218.518 235.869 219.666 236.653C220.825 237.426 221.729 238.511 222.376 239.909H222.649C223.32 238.557 224.325 237.483 225.666 236.688C227.007 235.881 228.615 235.477 230.49 235.477C232.831 235.477 234.746 236.21 236.234 237.676C237.723 239.131 238.467 241.398 238.467 244.477V262H234.445V244.477C234.445 242.545 233.916 241.165 232.859 240.335C231.803 239.506 230.558 239.091 229.126 239.091C227.286 239.091 225.859 239.648 224.848 240.761C223.837 241.864 223.331 243.261 223.331 244.955V262H219.24V244.068C219.24 242.58 218.757 241.381 217.791 240.472C216.825 239.551 215.581 239.091 214.058 239.091C213.013 239.091 212.036 239.369 211.126 239.926C210.229 240.483 209.501 241.256 208.945 242.244C208.399 243.222 208.126 244.352 208.126 245.636V262H204.104ZM253.527 262.614C251.868 262.614 250.362 262.301 249.01 261.676C247.658 261.04 246.584 260.125 245.788 258.932C244.993 257.727 244.595 256.273 244.595 254.568C244.595 253.068 244.891 251.852 245.482 250.92C246.072 249.977 246.862 249.239 247.851 248.705C248.839 248.17 249.93 247.773 251.124 247.511C252.328 247.239 253.538 247.023 254.754 246.864C256.345 246.659 257.635 246.506 258.624 246.403C259.624 246.29 260.351 246.102 260.805 245.841C261.271 245.58 261.504 245.125 261.504 244.477V244.341C261.504 242.659 261.044 241.352 260.124 240.42C259.214 239.489 257.834 239.023 255.982 239.023C254.061 239.023 252.555 239.443 251.464 240.284C250.374 241.125 249.607 242.023 249.163 242.977L245.345 241.614C246.027 240.023 246.936 238.784 248.072 237.898C249.22 237 250.47 236.375 251.822 236.023C253.186 235.659 254.527 235.477 255.845 235.477C256.686 235.477 257.652 235.58 258.743 235.784C259.845 235.977 260.908 236.381 261.93 236.994C262.964 237.608 263.822 238.534 264.504 239.773C265.186 241.011 265.527 242.67 265.527 244.75V262H261.504V258.455H261.3C261.027 259.023 260.572 259.631 259.936 260.278C259.3 260.926 258.453 261.477 257.396 261.932C256.339 262.386 255.05 262.614 253.527 262.614ZM254.141 259C255.732 259 257.072 258.688 258.163 258.062C259.266 257.438 260.095 256.631 260.652 255.642C261.22 254.653 261.504 253.614 261.504 252.523V248.841C261.334 249.045 260.959 249.233 260.379 249.403C259.811 249.562 259.152 249.705 258.402 249.83C257.663 249.943 256.942 250.045 256.237 250.136C255.544 250.216 254.982 250.284 254.55 250.341C253.504 250.477 252.527 250.699 251.618 251.006C250.72 251.301 249.993 251.75 249.436 252.352C248.891 252.943 248.618 253.75 248.618 254.773C248.618 256.17 249.135 257.227 250.169 257.943C251.214 258.648 252.538 259 254.141 259ZM284.256 235.818V239.227H270.688V235.818H284.256ZM274.642 229.545H278.665V254.5C278.665 255.636 278.83 256.489 279.159 257.057C279.5 257.614 279.932 257.989 280.455 258.182C280.989 258.364 281.551 258.455 282.142 258.455C282.585 258.455 282.949 258.432 283.233 258.386C283.517 258.33 283.744 258.284 283.915 258.25L284.733 261.864C284.46 261.966 284.08 262.068 283.591 262.17C283.102 262.284 282.483 262.341 281.733 262.341C280.597 262.341 279.483 262.097 278.392 261.608C277.313 261.119 276.415 260.375 275.699 259.375C274.994 258.375 274.642 257.114 274.642 255.591V229.545ZM290.307 262V235.818H294.33V262H290.307ZM292.352 231.455C291.568 231.455 290.892 231.188 290.324 230.653C289.767 230.119 289.489 229.477 289.489 228.727C289.489 227.977 289.767 227.335 290.324 226.801C290.892 226.267 291.568 226 292.352 226C293.136 226 293.807 226.267 294.364 226.801C294.932 227.335 295.216 227.977 295.216 228.727C295.216 229.477 294.932 230.119 294.364 230.653C293.807 231.188 293.136 231.455 292.352 231.455ZM305.72 246.25V262H301.697V235.818H305.584V239.909H305.925C306.538 238.58 307.47 237.511 308.72 236.705C309.97 235.886 311.584 235.477 313.561 235.477C315.334 235.477 316.885 235.841 318.214 236.568C319.544 237.284 320.578 238.375 321.317 239.841C322.055 241.295 322.425 243.136 322.425 245.364V262H318.402V245.636C318.402 243.58 317.868 241.977 316.8 240.83C315.732 239.67 314.266 239.091 312.402 239.091C311.118 239.091 309.97 239.369 308.959 239.926C307.959 240.483 307.169 241.295 306.589 242.364C306.01 243.432 305.72 244.727 305.72 246.25ZM340.344 272.364C338.401 272.364 336.73 272.114 335.332 271.614C333.935 271.125 332.77 270.477 331.838 269.67C330.918 268.875 330.185 268.023 329.639 267.114L332.844 264.864C333.207 265.341 333.668 265.886 334.224 266.5C334.781 267.125 335.543 267.665 336.509 268.119C337.486 268.585 338.764 268.818 340.344 268.818C342.457 268.818 344.202 268.307 345.577 267.284C346.952 266.261 347.639 264.659 347.639 262.477V257.159H347.298C347.003 257.636 346.582 258.227 346.037 258.932C345.503 259.625 344.73 260.244 343.719 260.79C342.719 261.324 341.366 261.591 339.662 261.591C337.548 261.591 335.651 261.091 333.969 260.091C332.298 259.091 330.974 257.636 329.997 255.727C329.031 253.818 328.548 251.5 328.548 248.773C328.548 246.091 329.02 243.756 329.963 241.767C330.906 239.767 332.219 238.222 333.901 237.131C335.582 236.028 337.526 235.477 339.73 235.477C341.435 235.477 342.787 235.761 343.787 236.33C344.798 236.886 345.571 237.523 346.105 238.239C346.651 238.943 347.071 239.523 347.366 239.977H347.776V235.818H351.662V262.75C351.662 265 351.151 266.83 350.128 268.239C349.116 269.659 347.753 270.699 346.037 271.358C344.332 272.028 342.435 272.364 340.344 272.364ZM340.207 257.977C341.821 257.977 343.185 257.608 344.298 256.869C345.412 256.131 346.259 255.068 346.838 253.682C347.418 252.295 347.707 250.636 347.707 248.705C347.707 246.818 347.423 245.153 346.855 243.71C346.287 242.267 345.446 241.136 344.332 240.318C343.219 239.5 341.844 239.091 340.207 239.091C338.503 239.091 337.082 239.523 335.946 240.386C334.821 241.25 333.974 242.409 333.406 243.864C332.849 245.318 332.571 246.932 332.571 248.705C332.571 250.523 332.855 252.131 333.423 253.528C334.003 254.915 334.855 256.006 335.98 256.801C337.116 257.585 338.526 257.977 340.207 257.977ZM392.162 235.818C391.957 234.091 391.128 232.75 389.673 231.795C388.219 230.841 386.435 230.364 384.321 230.364C382.776 230.364 381.423 230.614 380.264 231.114C379.116 231.614 378.219 232.301 377.571 233.176C376.935 234.051 376.616 235.045 376.616 236.159C376.616 237.091 376.838 237.892 377.281 238.562C377.736 239.222 378.315 239.773 379.02 240.216C379.724 240.648 380.463 241.006 381.236 241.29C382.009 241.562 382.719 241.784 383.366 241.955L386.912 242.909C387.821 243.148 388.832 243.477 389.946 243.898C391.071 244.318 392.145 244.892 393.168 245.619C394.202 246.335 395.054 247.256 395.724 248.381C396.395 249.506 396.73 250.886 396.73 252.523C396.73 254.409 396.236 256.114 395.247 257.636C394.27 259.159 392.838 260.369 390.952 261.267C389.077 262.165 386.798 262.614 384.116 262.614C381.616 262.614 379.452 262.21 377.622 261.403C375.804 260.597 374.372 259.472 373.327 258.028C372.293 256.585 371.707 254.909 371.571 253H375.935C376.048 254.318 376.491 255.409 377.264 256.273C378.048 257.125 379.037 257.761 380.23 258.182C381.435 258.591 382.73 258.795 384.116 258.795C385.73 258.795 387.179 258.534 388.463 258.011C389.747 257.477 390.764 256.739 391.514 255.795C392.264 254.841 392.639 253.727 392.639 252.455C392.639 251.295 392.315 250.352 391.668 249.625C391.02 248.898 390.168 248.307 389.111 247.852C388.054 247.398 386.912 247 385.685 246.659L381.389 245.432C378.662 244.648 376.503 243.528 374.912 242.074C373.321 240.619 372.526 238.716 372.526 236.364C372.526 234.409 373.054 232.705 374.111 231.25C375.179 229.784 376.611 228.648 378.406 227.841C380.213 227.023 382.23 226.614 384.457 226.614C386.707 226.614 388.707 227.017 390.457 227.824C392.207 228.619 393.594 229.71 394.616 231.097C395.651 232.483 396.196 234.057 396.253 235.818H392.162ZM403.68 262V227.091H424.749V230.841H407.908V242.636H423.658V246.386H407.908V258.25H425.021V262H403.68ZM461.822 244.545C461.822 248.227 461.158 251.409 459.828 254.091C458.499 256.773 456.675 258.841 454.357 260.295C452.038 261.75 449.391 262.477 446.413 262.477C443.436 262.477 440.788 261.75 438.47 260.295C436.152 258.841 434.328 256.773 432.999 254.091C431.669 251.409 431.004 248.227 431.004 244.545C431.004 240.864 431.669 237.682 432.999 235C434.328 232.318 436.152 230.25 438.47 228.795C440.788 227.341 443.436 226.614 446.413 226.614C449.391 226.614 452.038 227.341 454.357 228.795C456.675 230.25 458.499 232.318 459.828 235C461.158 237.682 461.822 240.864 461.822 244.545ZM457.732 244.545C457.732 241.523 457.226 238.972 456.214 236.892C455.214 234.812 453.857 233.239 452.141 232.17C450.436 231.102 448.527 230.568 446.413 230.568C444.3 230.568 442.385 231.102 440.669 232.17C438.964 233.239 437.607 234.812 436.595 236.892C435.595 238.972 435.095 241.523 435.095 244.545C435.095 247.568 435.595 250.119 436.595 252.199C437.607 254.278 438.964 255.852 440.669 256.92C442.385 257.989 444.3 258.523 446.413 258.523C448.527 258.523 450.436 257.989 452.141 256.92C453.857 255.852 455.214 254.278 456.214 252.199C457.226 250.119 457.732 247.568 457.732 244.545ZM152.607 293.818V297.227H139.039V293.818H152.607ZM142.994 287.545H147.016V312.5C147.016 313.636 147.181 314.489 147.511 315.057C147.852 315.614 148.283 315.989 148.806 316.182C149.34 316.364 149.903 316.455 150.494 316.455C150.937 316.455 151.3 316.432 151.585 316.386C151.869 316.33 152.096 316.284 152.266 316.25L153.085 319.864C152.812 319.966 152.431 320.068 151.942 320.17C151.454 320.284 150.835 320.341 150.085 320.341C148.948 320.341 147.835 320.097 146.744 319.608C145.664 319.119 144.766 318.375 144.05 317.375C143.346 316.375 142.994 315.114 142.994 313.591V287.545ZM163.244 304.25V320H159.221V285.091H163.244V297.909H163.585C164.198 296.557 165.119 295.483 166.346 294.688C167.585 293.881 169.232 293.477 171.289 293.477C173.073 293.477 174.636 293.835 175.977 294.551C177.317 295.256 178.357 296.341 179.096 297.807C179.846 299.261 180.221 301.114 180.221 303.364V320H176.198V303.636C176.198 301.557 175.658 299.949 174.579 298.812C173.511 297.665 172.028 297.091 170.13 297.091C168.812 297.091 167.63 297.369 166.585 297.926C165.55 298.483 164.732 299.295 164.13 300.364C163.539 301.432 163.244 302.727 163.244 304.25ZM198.558 320.545C196.035 320.545 193.859 319.989 192.029 318.875C190.211 317.75 188.808 316.182 187.819 314.17C186.842 312.148 186.353 309.795 186.353 307.114C186.353 304.432 186.842 302.068 187.819 300.023C188.808 297.966 190.183 296.364 191.944 295.216C193.717 294.057 195.785 293.477 198.148 293.477C199.512 293.477 200.859 293.705 202.188 294.159C203.518 294.614 204.728 295.352 205.819 296.375C206.91 297.386 207.779 298.727 208.427 300.398C209.075 302.068 209.398 304.125 209.398 306.568V308.273H189.217V304.795H205.308C205.308 303.318 205.012 302 204.421 300.841C203.842 299.682 203.012 298.767 201.933 298.097C200.864 297.426 199.603 297.091 198.148 297.091C196.546 297.091 195.16 297.489 193.989 298.284C192.83 299.068 191.938 300.091 191.313 301.352C190.688 302.614 190.376 303.966 190.376 305.409V307.727C190.376 309.705 190.717 311.381 191.398 312.756C192.092 314.119 193.052 315.159 194.279 315.875C195.506 316.58 196.933 316.932 198.558 316.932C199.614 316.932 200.569 316.784 201.421 316.489C202.285 316.182 203.029 315.727 203.654 315.125C204.279 314.511 204.762 313.75 205.103 312.841L208.989 313.932C208.58 315.25 207.893 316.409 206.927 317.409C205.961 318.398 204.768 319.17 203.347 319.727C201.927 320.273 200.33 320.545 198.558 320.545ZM229.018 320V293.818H232.904V297.773H233.177C233.654 296.477 234.518 295.426 235.768 294.619C237.018 293.812 238.427 293.409 239.995 293.409C240.29 293.409 240.66 293.415 241.103 293.426C241.546 293.437 241.881 293.455 242.109 293.477V297.568C241.972 297.534 241.66 297.483 241.171 297.415C240.694 297.335 240.188 297.295 239.654 297.295C238.381 297.295 237.245 297.562 236.245 298.097C235.256 298.619 234.472 299.347 233.893 300.278C233.325 301.199 233.04 302.25 233.04 303.432V320H229.018ZM246.877 320V293.818H250.9V320H246.877ZM248.923 289.455C248.138 289.455 247.462 289.188 246.894 288.653C246.337 288.119 246.059 287.477 246.059 286.727C246.059 285.977 246.337 285.335 246.894 284.801C247.462 284.267 248.138 284 248.923 284C249.707 284 250.377 284.267 250.934 284.801C251.502 285.335 251.786 285.977 251.786 286.727C251.786 287.477 251.502 288.119 250.934 288.653C250.377 289.188 249.707 289.455 248.923 289.455ZM268.836 330.364C266.893 330.364 265.222 330.114 263.825 329.614C262.427 329.125 261.262 328.477 260.33 327.67C259.41 326.875 258.677 326.023 258.131 325.114L261.336 322.864C261.7 323.341 262.16 323.886 262.717 324.5C263.273 325.125 264.035 325.665 265.001 326.119C265.978 326.585 267.256 326.818 268.836 326.818C270.95 326.818 272.694 326.307 274.069 325.284C275.444 324.261 276.131 322.659 276.131 320.477V315.159H275.79C275.495 315.636 275.075 316.227 274.529 316.932C273.995 317.625 273.222 318.244 272.211 318.79C271.211 319.324 269.859 319.591 268.154 319.591C266.04 319.591 264.143 319.091 262.461 318.091C260.79 317.091 259.467 315.636 258.489 313.727C257.523 311.818 257.04 309.5 257.04 306.773C257.04 304.091 257.512 301.756 258.455 299.767C259.398 297.767 260.711 296.222 262.393 295.131C264.075 294.028 266.018 293.477 268.222 293.477C269.927 293.477 271.279 293.761 272.279 294.33C273.29 294.886 274.063 295.523 274.597 296.239C275.143 296.943 275.563 297.523 275.859 297.977H276.268V293.818H280.154V320.75C280.154 323 279.643 324.83 278.62 326.239C277.609 327.659 276.245 328.699 274.529 329.358C272.825 330.028 270.927 330.364 268.836 330.364ZM268.7 315.977C270.313 315.977 271.677 315.608 272.79 314.869C273.904 314.131 274.751 313.068 275.33 311.682C275.91 310.295 276.2 308.636 276.2 306.705C276.2 304.818 275.915 303.153 275.347 301.71C274.779 300.267 273.938 299.136 272.825 298.318C271.711 297.5 270.336 297.091 268.7 297.091C266.995 297.091 265.575 297.523 264.438 298.386C263.313 299.25 262.467 300.409 261.898 301.864C261.342 303.318 261.063 304.932 261.063 306.705C261.063 308.523 261.347 310.131 261.915 311.528C262.495 312.915 263.347 314.006 264.472 314.801C265.609 315.585 267.018 315.977 268.7 315.977ZM291.54 304.25V320H287.518V285.091H291.54V297.909H291.881C292.495 296.557 293.415 295.483 294.643 294.688C295.881 293.881 297.529 293.477 299.586 293.477C301.37 293.477 302.933 293.835 304.273 294.551C305.614 295.256 306.654 296.341 307.393 297.807C308.143 299.261 308.518 301.114 308.518 303.364V320H304.495V303.636C304.495 301.557 303.955 299.949 302.876 298.812C301.808 297.665 300.325 297.091 298.427 297.091C297.109 297.091 295.927 297.369 294.881 297.926C293.847 298.483 293.029 299.295 292.427 300.364C291.836 301.432 291.54 302.727 291.54 304.25ZM327.263 293.818V297.227H313.695V293.818H327.263ZM317.65 287.545H321.673V312.5C321.673 313.636 321.837 314.489 322.167 315.057C322.508 315.614 322.94 315.989 323.462 316.182C323.996 316.364 324.559 316.455 325.15 316.455C325.593 316.455 325.957 316.432 326.241 316.386C326.525 316.33 326.752 316.284 326.923 316.25L327.741 319.864C327.468 319.966 327.087 320.068 326.599 320.17C326.11 320.284 325.491 320.341 324.741 320.341C323.604 320.341 322.491 320.097 321.4 319.608C320.32 319.119 319.423 318.375 318.707 317.375C318.002 316.375 317.65 315.114 317.65 313.591V287.545ZM352.746 320L344.769 293.818H348.996L354.656 313.864H354.928L360.519 293.818H364.815L370.337 313.795H370.61L376.269 293.818H380.496L372.519 320H368.565L362.837 299.886H362.428L356.701 320H352.746ZM393.519 320.614C391.86 320.614 390.354 320.301 389.002 319.676C387.65 319.04 386.576 318.125 385.781 316.932C384.985 315.727 384.587 314.273 384.587 312.568C384.587 311.068 384.883 309.852 385.474 308.92C386.065 307.977 386.854 307.239 387.843 306.705C388.832 306.17 389.923 305.773 391.116 305.511C392.32 305.239 393.531 305.023 394.746 304.864C396.337 304.659 397.627 304.506 398.616 304.403C399.616 304.29 400.343 304.102 400.798 303.841C401.263 303.58 401.496 303.125 401.496 302.477V302.341C401.496 300.659 401.036 299.352 400.116 298.42C399.207 297.489 397.826 297.023 395.974 297.023C394.053 297.023 392.548 297.443 391.457 298.284C390.366 299.125 389.599 300.023 389.156 300.977L385.337 299.614C386.019 298.023 386.928 296.784 388.065 295.898C389.212 295 390.462 294.375 391.815 294.023C393.178 293.659 394.519 293.477 395.837 293.477C396.678 293.477 397.644 293.58 398.735 293.784C399.837 293.977 400.9 294.381 401.923 294.994C402.957 295.608 403.815 296.534 404.496 297.773C405.178 299.011 405.519 300.67 405.519 302.75V320H401.496V316.455H401.292C401.019 317.023 400.565 317.631 399.928 318.278C399.292 318.926 398.445 319.477 397.388 319.932C396.332 320.386 395.042 320.614 393.519 320.614ZM394.133 317C395.724 317 397.065 316.688 398.156 316.062C399.258 315.438 400.087 314.631 400.644 313.642C401.212 312.653 401.496 311.614 401.496 310.523V306.841C401.326 307.045 400.951 307.233 400.371 307.403C399.803 307.562 399.144 307.705 398.394 307.83C397.656 307.943 396.934 308.045 396.229 308.136C395.536 308.216 394.974 308.284 394.542 308.341C393.496 308.477 392.519 308.699 391.61 309.006C390.712 309.301 389.985 309.75 389.428 310.352C388.883 310.943 388.61 311.75 388.61 312.773C388.61 314.17 389.127 315.227 390.161 315.943C391.207 316.648 392.531 317 394.133 317ZM414.515 329.818C413.833 329.818 413.225 329.761 412.691 329.648C412.157 329.545 411.788 329.443 411.583 329.341L412.606 325.795C413.583 326.045 414.447 326.136 415.197 326.068C415.947 326 416.612 325.665 417.191 325.062C417.782 324.472 418.322 323.511 418.81 322.182L419.56 320.136L409.879 293.818H414.242L421.469 314.682H421.742L428.969 293.818H433.333L422.219 323.818C421.719 325.17 421.1 326.29 420.362 327.176C419.623 328.074 418.765 328.739 417.788 329.17C416.822 329.602 415.731 329.818 414.515 329.818Z" fill="#A2A2A2"/>
<defs>
<linearGradient id="paint0_linear_0_1" x1="360.5" y1="0" x2="360.5" y2="605.78" gradientUnits="userSpaceOnUse">
<stop stop-color="white"/>
<stop offset="0.974" stop-color="#131313"/>
</linearGradient>
</defs>
</svg>
