<svg width="537" height="618" viewBox="0 0 537 618" fill="none" xmlns="http://www.w3.org/2000/svg">
<circle cx="206.5" cy="121.5" r="121" stroke="white"/>
<circle cx="415.5" cy="349.5" r="121" stroke="white"/>
<circle cx="121.5" cy="496.5" r="121" stroke="white"/>
<path d="M426.697 221.898C426.917 222.065 427.231 222.022 427.398 221.802L430.12 218.219C430.288 217.999 430.245 217.686 430.025 217.519C429.805 217.352 429.491 217.395 429.324 217.614L426.904 220.799L423.719 218.38C423.499 218.212 423.186 218.255 423.019 218.475C422.852 218.695 422.894 219.009 423.114 219.176L426.697 221.898ZM337.81 114.963C344.887 117.87 353.741 124.259 363.122 132.679C372.493 141.09 382.354 151.497 391.442 162.399C400.53 173.302 408.838 184.693 415.105 195.07C421.383 205.464 425.579 214.787 426.505 221.568L427.495 221.432C426.54 214.437 422.25 204.967 415.961 194.553C409.662 184.123 401.323 172.692 392.21 161.759C383.097 150.826 373.203 140.384 363.79 131.935C354.387 123.495 345.429 117.012 338.19 114.038L337.81 114.963Z" fill="white"/>
<path d="M251.738 525.556C251.503 525.701 251.43 526.009 251.574 526.244L253.932 530.077C254.077 530.312 254.385 530.385 254.62 530.241C254.855 530.096 254.929 529.788 254.784 529.553L252.688 526.146L256.095 524.05C256.33 523.905 256.403 523.597 256.259 523.362C256.114 523.127 255.806 523.053 255.571 523.198L251.738 525.556ZM383.56 481.293C378.293 486.842 369.137 492.792 357.897 498.498C346.669 504.198 333.403 509.635 319.954 514.171C306.505 518.708 292.882 522.34 280.942 524.436C268.982 526.536 258.773 527.082 252.116 525.495L251.884 526.468C258.752 528.104 269.133 527.525 281.115 525.421C293.116 523.315 306.788 519.668 320.274 515.119C333.76 510.57 347.071 505.115 358.35 499.389C369.617 493.67 378.897 487.658 384.285 481.982L383.56 481.293Z" fill="white"/>
<path d="M37.5005 266.5L37.0039 266.441L37.5005 266.5ZM76.497 173.939C76.4637 173.665 76.2144 173.47 75.9403 173.503L71.4732 174.047C71.1991 174.08 71.0039 174.329 71.0372 174.603C71.0706 174.878 71.3198 175.073 71.5939 175.039L75.5647 174.557L76.0476 178.527C76.0809 178.801 76.3302 178.997 76.6043 178.963C76.8784 178.93 77.0736 178.681 77.0403 178.407L76.497 173.939ZM57.0007 372C57.4535 371.788 57.4535 371.788 57.4533 371.788C57.4532 371.787 57.4529 371.787 57.4526 371.786C57.4518 371.784 57.4507 371.782 57.4493 371.779C57.4463 371.772 57.4418 371.763 57.4358 371.75C57.4238 371.724 57.4058 371.685 57.3821 371.633C57.3345 371.53 57.2638 371.375 57.1717 371.17C56.9874 370.761 56.7175 370.153 56.3758 369.36C55.6924 367.776 54.7221 365.453 53.576 362.506C51.2838 356.612 48.2892 348.221 45.4819 338.239C39.865 318.268 35.008 291.965 37.9971 266.558L37.0039 266.441C33.993 292.034 38.8861 318.481 44.5193 338.51C47.337 348.529 50.3425 356.95 52.644 362.869C53.7948 365.828 54.7698 368.162 55.4575 369.756C55.8014 370.554 56.0735 371.167 56.2598 371.581C56.353 371.788 56.4247 371.945 56.4733 372.051C56.4976 372.103 56.5161 372.143 56.5286 372.17C56.5348 372.184 56.5395 372.194 56.5428 372.201C56.5444 372.204 56.5456 372.207 56.5464 372.209C56.5468 372.21 56.5472 372.21 56.5474 372.211C56.5476 372.211 56.5478 372.212 57.0007 372ZM37.9971 266.558C40.9872 241.142 50.5838 218.078 59.4424 201.359C63.8705 193.002 68.1113 186.235 71.2441 181.559C72.8105 179.222 74.0996 177.407 74.9964 176.177C75.4448 175.563 75.7951 175.094 76.0329 174.78C76.1518 174.623 76.2425 174.505 76.3034 174.426C76.3338 174.386 76.3567 174.356 76.372 174.337C76.3796 174.327 76.3853 174.32 76.389 174.315C76.3909 174.313 76.3922 174.311 76.3931 174.31C76.3936 174.309 76.3939 174.309 76.3941 174.308C76.3943 174.308 76.3943 174.308 76.0007 174C75.607 173.692 75.6068 173.692 75.6065 173.692C75.6062 173.693 75.6058 173.693 75.6052 173.694C75.6041 173.695 75.6025 173.697 75.6005 173.7C75.5963 173.705 75.5902 173.713 75.5822 173.723C75.5661 173.744 75.5424 173.775 75.5111 173.815C75.4486 173.896 75.3561 174.017 75.2355 174.177C74.9943 174.495 74.6405 174.968 74.1885 175.588C73.2845 176.827 71.9877 178.653 70.4134 181.003C67.2649 185.702 63.0057 192.498 58.5587 200.891C49.6673 217.672 40.0137 240.858 37.0039 266.441L37.9971 266.558Z" fill="white"/>
<path d="M135.875 122.364C135.875 124.765 135.458 126.864 134.625 128.659C133.792 130.447 132.633 131.837 131.148 132.83C129.67 133.822 127.966 134.318 126.034 134.318C124.095 134.318 122.383 133.822 120.898 132.83C119.42 131.83 118.265 130.436 117.432 128.648C116.598 126.852 116.182 124.758 116.182 122.364C116.182 119.962 116.598 117.867 117.432 116.08C118.273 114.292 119.432 112.902 120.909 111.909C122.386 110.909 124.095 110.409 126.034 110.409C127.966 110.409 129.67 110.905 131.148 111.898C132.633 112.89 133.792 114.284 134.625 116.08C135.458 117.867 135.875 119.962 135.875 122.364ZM134.489 122.364C134.489 120.205 134.125 118.333 133.398 116.75C132.678 115.167 131.682 113.943 130.409 113.08C129.136 112.208 127.678 111.773 126.034 111.773C124.39 111.773 122.932 112.205 121.659 113.068C120.386 113.924 119.386 115.148 118.659 116.739C117.939 118.322 117.58 120.197 117.58 122.364C117.58 124.508 117.936 126.375 118.648 127.966C119.367 129.549 120.364 130.777 121.636 131.648C122.909 132.519 124.375 132.955 126.034 132.955C127.678 132.955 129.136 132.523 130.409 131.659C131.682 130.788 132.678 129.561 133.398 127.977C134.125 126.394 134.489 124.523 134.489 122.364ZM140.938 140.545V116.545H142.29V120.443H142.46C142.733 119.693 143.116 119.004 143.608 118.375C144.108 117.746 144.725 117.242 145.46 116.864C146.203 116.477 147.074 116.284 148.074 116.284C149.483 116.284 150.71 116.67 151.756 117.443C152.801 118.216 153.612 119.284 154.188 120.648C154.763 122.004 155.051 123.561 155.051 125.318C155.051 127.076 154.759 128.636 154.176 130C153.6 131.356 152.79 132.424 151.744 133.205C150.706 133.977 149.491 134.364 148.097 134.364C147.104 134.364 146.233 134.174 145.483 133.795C144.741 133.417 144.116 132.913 143.608 132.284C143.108 131.648 142.725 130.951 142.46 130.193H142.324V140.545H140.938ZM142.301 125.307C142.301 126.792 142.528 128.121 142.983 129.295C143.438 130.462 144.089 131.386 144.938 132.068C145.786 132.742 146.797 133.08 147.972 133.08C149.161 133.08 150.18 132.739 151.028 132.057C151.884 131.367 152.536 130.436 152.983 129.261C153.438 128.087 153.665 126.769 153.665 125.307C153.665 123.845 153.441 122.53 152.994 121.364C152.547 120.197 151.9 119.277 151.051 118.602C150.203 117.92 149.176 117.58 147.972 117.58C146.782 117.58 145.763 117.917 144.915 118.591C144.074 119.258 143.426 120.174 142.972 121.341C142.525 122.5 142.301 123.822 142.301 125.307ZM166.014 116.545V117.784H158.389V116.545H166.014ZM160.969 112.364H162.344V129.875C162.344 130.587 162.48 131.17 162.753 131.625C163.033 132.072 163.397 132.405 163.844 132.625C164.298 132.837 164.783 132.943 165.298 132.943C165.548 132.943 165.764 132.924 165.946 132.886C166.135 132.848 166.313 132.799 166.48 132.739L166.821 134C166.609 134.076 166.374 134.14 166.116 134.193C165.859 134.254 165.556 134.284 165.207 134.284C164.48 134.284 163.791 134.121 163.139 133.795C162.495 133.47 161.973 132.996 161.571 132.375C161.17 131.754 160.969 131.004 160.969 130.125V112.364ZM171.224 134V116.545H172.599V134H171.224ZM171.918 113.455C171.615 113.455 171.349 113.348 171.122 113.136C170.902 112.924 170.793 112.667 170.793 112.364C170.793 112.061 170.902 111.803 171.122 111.591C171.342 111.379 171.607 111.273 171.918 111.273C172.221 111.273 172.482 111.379 172.702 111.591C172.929 111.803 173.043 112.061 173.043 112.364C173.043 112.667 172.933 112.924 172.713 113.136C172.493 113.348 172.228 113.455 171.918 113.455ZM178.406 134V116.545H179.759V119.182H179.895C180.228 118.303 180.804 117.606 181.622 117.091C182.44 116.576 183.425 116.318 184.577 116.318C185.842 116.318 186.861 116.621 187.634 117.227C188.414 117.833 188.974 118.655 189.315 119.693H189.44C189.781 118.67 190.391 117.852 191.27 117.239C192.156 116.625 193.247 116.318 194.543 116.318C196.232 116.318 197.52 116.852 198.406 117.92C199.3 118.981 199.747 120.436 199.747 122.284V134H198.361V122.284C198.361 120.83 198.012 119.686 197.315 118.852C196.618 118.019 195.596 117.602 194.247 117.602C192.808 117.602 191.702 118.053 190.929 118.955C190.156 119.856 189.77 121.004 189.77 122.398V134H188.384V122.193C188.384 120.837 188.043 119.735 187.361 118.886C186.679 118.03 185.656 117.602 184.293 117.602C183.368 117.602 182.569 117.814 181.895 118.239C181.228 118.663 180.709 119.246 180.338 119.989C179.974 120.731 179.793 121.583 179.793 122.545V134H178.406ZM205.568 134V116.545H206.943V134H205.568ZM206.261 113.455C205.958 113.455 205.693 113.348 205.466 113.136C205.246 112.924 205.136 112.667 205.136 112.364C205.136 112.061 205.246 111.803 205.466 111.591C205.686 111.379 205.951 111.273 206.261 111.273C206.564 111.273 206.826 111.379 207.045 111.591C207.273 111.803 207.386 112.061 207.386 112.364C207.386 112.667 207.277 112.924 207.057 113.136C206.837 113.348 206.572 113.455 206.261 113.455ZM223.841 120.307L222.557 120.648C222.352 120.011 222.061 119.462 221.682 119C221.303 118.538 220.826 118.182 220.25 117.932C219.682 117.674 219 117.545 218.205 117.545C216.924 117.545 215.875 117.864 215.057 118.5C214.246 119.136 213.841 119.966 213.841 120.989C213.841 121.822 214.117 122.511 214.67 123.057C215.223 123.595 216.068 124.004 217.205 124.284L219.886 124.955C221.265 125.295 222.303 125.848 223 126.614C223.697 127.371 224.045 128.314 224.045 129.443C224.045 130.405 223.784 131.258 223.261 132C222.739 132.742 222.015 133.322 221.091 133.739C220.174 134.155 219.106 134.364 217.886 134.364C216.258 134.364 214.92 133.985 213.875 133.227C212.83 132.462 212.159 131.367 211.864 129.943L213.193 129.602C213.443 130.739 213.962 131.606 214.75 132.205C215.545 132.795 216.587 133.091 217.875 133.091C219.299 133.091 220.447 132.754 221.318 132.08C222.197 131.405 222.636 130.542 222.636 129.489C222.636 128.686 222.379 128.008 221.864 127.455C221.348 126.902 220.568 126.496 219.523 126.239L216.739 125.557C215.314 125.208 214.246 124.652 213.534 123.886C212.822 123.114 212.466 122.163 212.466 121.034C212.466 120.095 212.712 119.269 213.205 118.557C213.697 117.845 214.375 117.288 215.239 116.886C216.102 116.485 217.091 116.284 218.205 116.284C219.682 116.284 220.886 116.633 221.818 117.33C222.75 118.027 223.424 119.019 223.841 120.307ZM233.469 134.375C232.461 134.375 231.537 134.174 230.696 133.773C229.863 133.371 229.192 132.784 228.685 132.011C228.185 131.239 227.935 130.299 227.935 129.193C227.935 128.466 228.063 127.826 228.321 127.273C228.579 126.72 228.976 126.242 229.514 125.841C230.052 125.439 230.741 125.11 231.582 124.852C232.423 124.587 233.427 124.383 234.594 124.239C235.48 124.133 236.272 124.03 236.969 123.932C237.666 123.826 238.211 123.663 238.605 123.443C239.007 123.223 239.207 122.89 239.207 122.443V121.716C239.207 120.443 238.806 119.432 238.003 118.682C237.2 117.932 236.094 117.557 234.685 117.557C233.435 117.557 232.382 117.833 231.526 118.386C230.677 118.932 230.082 119.636 229.741 120.5L228.435 120.011C228.768 119.178 229.249 118.485 229.878 117.932C230.514 117.379 231.241 116.966 232.06 116.693C232.885 116.42 233.749 116.284 234.651 116.284C235.431 116.284 236.173 116.394 236.878 116.614C237.59 116.833 238.223 117.167 238.776 117.614C239.336 118.061 239.779 118.633 240.105 119.33C240.431 120.019 240.594 120.845 240.594 121.807V134H239.207V130.852H239.105C238.802 131.504 238.385 132.098 237.855 132.636C237.332 133.167 236.7 133.591 235.957 133.909C235.223 134.22 234.393 134.375 233.469 134.375ZM233.605 133.091C234.696 133.091 235.662 132.826 236.503 132.295C237.351 131.758 238.014 131.023 238.491 130.091C238.969 129.159 239.207 128.102 239.207 126.92V124.352C239.033 124.504 238.779 124.64 238.446 124.761C238.12 124.875 237.749 124.977 237.332 125.068C236.923 125.152 236.491 125.227 236.037 125.295C235.59 125.356 235.154 125.413 234.73 125.466C233.457 125.617 232.42 125.852 231.616 126.17C230.821 126.481 230.238 126.89 229.866 127.398C229.503 127.905 229.321 128.519 229.321 129.239C229.321 130.428 229.73 131.367 230.548 132.057C231.366 132.746 232.385 133.091 233.605 133.091ZM252.577 116.545V117.784H244.952V116.545H252.577ZM247.531 112.364H248.906V129.875C248.906 130.587 249.043 131.17 249.315 131.625C249.596 132.072 249.959 132.405 250.406 132.625C250.861 132.837 251.346 132.943 251.861 132.943C252.111 132.943 252.327 132.924 252.509 132.886C252.698 132.848 252.876 132.799 253.043 132.739L253.384 134C253.171 134.076 252.937 134.14 252.679 134.193C252.421 134.254 252.118 134.284 251.77 134.284C251.043 134.284 250.353 134.121 249.702 133.795C249.058 133.47 248.535 132.996 248.134 132.375C247.732 131.754 247.531 131.004 247.531 130.125V112.364ZM257.787 134V116.545H259.162V134H257.787ZM258.48 113.455C258.177 113.455 257.912 113.348 257.685 113.136C257.465 112.924 257.355 112.667 257.355 112.364C257.355 112.061 257.465 111.803 257.685 111.591C257.904 111.379 258.17 111.273 258.48 111.273C258.783 111.273 259.045 111.379 259.264 111.591C259.491 111.803 259.605 112.061 259.605 112.364C259.605 112.667 259.495 112.924 259.276 113.136C259.056 113.348 258.791 113.455 258.48 113.455ZM271.457 134.364C270.018 134.364 268.738 133.977 267.616 133.205C266.495 132.424 265.613 131.352 264.969 129.989C264.325 128.625 264.003 127.072 264.003 125.33C264.003 123.58 264.325 122.027 264.969 120.67C265.613 119.307 266.495 118.235 267.616 117.455C268.738 116.674 270.018 116.284 271.457 116.284C272.897 116.284 274.177 116.674 275.298 117.455C276.42 118.235 277.302 119.307 277.946 120.67C278.59 122.034 278.912 123.587 278.912 125.33C278.912 127.072 278.59 128.625 277.946 129.989C277.302 131.352 276.42 132.424 275.298 133.205C274.177 133.977 272.897 134.364 271.457 134.364ZM271.457 133.08C272.677 133.08 273.741 132.735 274.651 132.045C275.567 131.356 276.276 130.424 276.776 129.25C277.283 128.076 277.537 126.769 277.537 125.33C277.537 123.89 277.283 122.587 276.776 121.42C276.268 120.246 275.56 119.314 274.651 118.625C273.741 117.928 272.677 117.58 271.457 117.58C270.238 117.58 269.173 117.928 268.264 118.625C267.355 119.314 266.647 120.246 266.139 121.42C265.632 122.587 265.378 123.89 265.378 125.33C265.378 126.769 265.628 128.076 266.128 129.25C266.635 130.424 267.344 131.356 268.253 132.045C269.17 132.735 270.238 133.08 271.457 133.08ZM285.074 122.682V134H283.688V116.545H285.04V119.307H285.176C285.585 118.405 286.241 117.682 287.142 117.136C288.044 116.591 289.116 116.318 290.358 116.318C291.532 116.318 292.563 116.568 293.449 117.068C294.343 117.568 295.04 118.28 295.54 119.205C296.047 120.121 296.301 121.216 296.301 122.489V134H294.915V122.545C294.915 121.061 294.472 119.867 293.585 118.966C292.706 118.057 291.544 117.602 290.097 117.602C289.127 117.602 288.263 117.814 287.506 118.239C286.748 118.663 286.153 119.258 285.722 120.023C285.29 120.78 285.074 121.667 285.074 122.682Z" fill="white"/>
<path d="M365.364 362V338.727H372.534C374.004 338.727 375.269 339.015 376.33 339.591C377.39 340.167 378.205 340.966 378.773 341.989C379.341 343.004 379.625 344.186 379.625 345.534C379.625 346.867 379.341 348.042 378.773 349.057C378.205 350.064 377.39 350.852 376.33 351.42C375.277 351.989 374.015 352.273 372.545 352.273H366.125V350.943H372.511C373.708 350.943 374.731 350.72 375.58 350.273C376.428 349.826 377.08 349.201 377.534 348.398C377.989 347.587 378.216 346.633 378.216 345.534C378.216 344.428 377.989 343.466 377.534 342.648C377.08 341.822 376.424 341.182 375.568 340.727C374.72 340.273 373.697 340.045 372.5 340.045H366.784V362H365.364ZM374.92 351.455L380.648 362H379.011L373.318 351.455H374.92ZM391.432 362.364C389.856 362.364 388.485 361.973 387.318 361.193C386.152 360.413 385.25 359.345 384.614 357.989C383.977 356.633 383.659 355.087 383.659 353.352C383.659 351.61 383.977 350.057 384.614 348.693C385.258 347.33 386.14 346.254 387.261 345.466C388.383 344.678 389.663 344.284 391.102 344.284C392.08 344.284 393.004 344.481 393.875 344.875C394.754 345.261 395.527 345.822 396.193 346.557C396.867 347.292 397.394 348.178 397.773 349.216C398.159 350.254 398.352 351.42 398.352 352.716V353.58H384.534V352.318H396.966C396.966 351.053 396.708 349.913 396.193 348.898C395.678 347.883 394.977 347.076 394.091 346.477C393.205 345.879 392.208 345.58 391.102 345.58C389.943 345.58 388.909 345.905 388 346.557C387.098 347.201 386.383 348.072 385.852 349.17C385.33 350.269 385.057 351.496 385.034 352.852V353.42C385.034 354.875 385.288 356.182 385.795 357.341C386.311 358.492 387.045 359.405 388 360.08C388.955 360.746 390.098 361.08 391.432 361.08C392.386 361.08 393.201 360.92 393.875 360.602C394.557 360.277 395.114 359.883 395.545 359.42C395.977 358.958 396.303 358.511 396.523 358.08L397.784 358.591C397.519 359.174 397.106 359.758 396.545 360.341C395.992 360.917 395.288 361.398 394.432 361.784C393.583 362.17 392.583 362.364 391.432 362.364ZM414.216 348.307L412.932 348.648C412.727 348.011 412.436 347.462 412.057 347C411.678 346.538 411.201 346.182 410.625 345.932C410.057 345.674 409.375 345.545 408.58 345.545C407.299 345.545 406.25 345.864 405.432 346.5C404.621 347.136 404.216 347.966 404.216 348.989C404.216 349.822 404.492 350.511 405.045 351.057C405.598 351.595 406.443 352.004 407.58 352.284L410.261 352.955C411.64 353.295 412.678 353.848 413.375 354.614C414.072 355.371 414.42 356.314 414.42 357.443C414.42 358.405 414.159 359.258 413.636 360C413.114 360.742 412.39 361.322 411.466 361.739C410.549 362.155 409.481 362.364 408.261 362.364C406.633 362.364 405.295 361.985 404.25 361.227C403.205 360.462 402.534 359.367 402.239 357.943L403.568 357.602C403.818 358.739 404.337 359.606 405.125 360.205C405.92 360.795 406.962 361.091 408.25 361.091C409.674 361.091 410.822 360.754 411.693 360.08C412.572 359.405 413.011 358.542 413.011 357.489C413.011 356.686 412.754 356.008 412.239 355.455C411.723 354.902 410.943 354.496 409.898 354.239L407.114 353.557C405.689 353.208 404.621 352.652 403.909 351.886C403.197 351.114 402.841 350.163 402.841 349.034C402.841 348.095 403.087 347.269 403.58 346.557C404.072 345.845 404.75 345.288 405.614 344.886C406.477 344.485 407.466 344.284 408.58 344.284C410.057 344.284 411.261 344.633 412.193 345.33C413.125 346.027 413.799 347.019 414.216 348.307ZM430.401 355.807V344.545H431.787V362H430.401V359.17H430.287C429.878 360.072 429.215 360.807 428.298 361.375C427.389 361.943 426.313 362.227 425.071 362.227C423.927 362.227 422.916 361.977 422.037 361.477C421.158 360.977 420.469 360.269 419.969 359.352C419.469 358.428 419.219 357.33 419.219 356.057V344.545H420.605V356C420.605 357.455 421.045 358.633 421.923 359.534C422.81 360.428 423.954 360.875 425.355 360.875C426.264 360.875 427.101 360.67 427.866 360.261C428.632 359.852 429.245 359.269 429.707 358.511C430.17 357.746 430.401 356.845 430.401 355.807ZM438.918 338.727V362H437.531V338.727H438.918ZM450.827 344.545V345.784H443.202V344.545H450.827ZM445.781 340.364H447.156V357.875C447.156 358.587 447.293 359.17 447.565 359.625C447.846 360.072 448.209 360.405 448.656 360.625C449.111 360.837 449.596 360.943 450.111 360.943C450.361 360.943 450.577 360.924 450.759 360.886C450.948 360.848 451.126 360.799 451.293 360.739L451.634 362C451.421 362.076 451.187 362.14 450.929 362.193C450.671 362.254 450.368 362.284 450.02 362.284C449.293 362.284 448.603 362.121 447.952 361.795C447.308 361.47 446.785 360.996 446.384 360.375C445.982 359.754 445.781 359.004 445.781 358.125V340.364ZM466.747 348.307L465.463 348.648C465.259 348.011 464.967 347.462 464.588 347C464.209 346.538 463.732 346.182 463.156 345.932C462.588 345.674 461.906 345.545 461.111 345.545C459.83 345.545 458.781 345.864 457.963 346.5C457.152 347.136 456.747 347.966 456.747 348.989C456.747 349.822 457.024 350.511 457.577 351.057C458.13 351.595 458.974 352.004 460.111 352.284L462.793 352.955C464.171 353.295 465.209 353.848 465.906 354.614C466.603 355.371 466.952 356.314 466.952 357.443C466.952 358.405 466.69 359.258 466.168 360C465.645 360.742 464.921 361.322 463.997 361.739C463.08 362.155 462.012 362.364 460.793 362.364C459.164 362.364 457.827 361.985 456.781 361.227C455.736 360.462 455.065 359.367 454.77 357.943L456.099 357.602C456.349 358.739 456.868 359.606 457.656 360.205C458.452 360.795 459.493 361.091 460.781 361.091C462.205 361.091 463.353 360.754 464.224 360.08C465.103 359.405 465.543 358.542 465.543 357.489C465.543 356.686 465.285 356.008 464.77 355.455C464.255 354.902 463.474 354.496 462.429 354.239L459.645 353.557C458.221 353.208 457.152 352.652 456.44 351.886C455.728 351.114 455.372 350.163 455.372 349.034C455.372 348.095 455.618 347.269 456.111 346.557C456.603 345.845 457.281 345.288 458.145 344.886C459.009 344.485 459.997 344.284 461.111 344.284C462.588 344.284 463.793 344.633 464.724 345.33C465.656 346.027 466.33 347.019 466.747 348.307Z" fill="white"/>
<path d="M48.3636 484.727H49.9091L58.875 505.955H59.0341L68 484.727H69.5455V508H68.1818V488.102H68.0455L59.625 508H58.2841L49.8636 488.102H49.7273V508H48.3636V484.727ZM82.5881 508.364C81.0123 508.364 79.6411 507.973 78.4744 507.193C77.3078 506.413 76.4063 505.345 75.7699 503.989C75.1335 502.633 74.8153 501.087 74.8153 499.352C74.8153 497.61 75.1335 496.057 75.7699 494.693C76.4138 493.33 77.2964 492.254 78.4176 491.466C79.5388 490.678 80.8191 490.284 82.2585 490.284C83.2358 490.284 84.16 490.481 85.0312 490.875C85.91 491.261 86.6828 491.822 87.3494 492.557C88.0237 493.292 88.5502 494.178 88.929 495.216C89.3153 496.254 89.5085 497.42 89.5085 498.716V499.58H75.6903V498.318H88.1222C88.1222 497.053 87.8646 495.913 87.3494 494.898C86.8343 493.883 86.1335 493.076 85.2472 492.477C84.3608 491.879 83.3646 491.58 82.2585 491.58C81.0994 491.58 80.0653 491.905 79.1562 492.557C78.2547 493.201 77.5388 494.072 77.0085 495.17C76.4858 496.269 76.2131 497.496 76.1903 498.852V499.42C76.1903 500.875 76.4441 502.182 76.9517 503.341C77.4669 504.492 78.2017 505.405 79.1562 506.08C80.1108 506.746 81.2547 507.08 82.5881 507.08C83.5426 507.08 84.357 506.92 85.0312 506.602C85.7131 506.277 86.2699 505.883 86.7017 505.42C87.1335 504.958 87.4593 504.511 87.679 504.08L88.9403 504.591C88.6752 505.174 88.2623 505.758 87.7017 506.341C87.1487 506.917 86.4441 507.398 85.5881 507.784C84.7396 508.17 83.7396 508.364 82.5881 508.364ZM98.9062 508.375C97.8987 508.375 96.9744 508.174 96.1335 507.773C95.3002 507.371 94.6297 506.784 94.1222 506.011C93.6222 505.239 93.3722 504.299 93.3722 503.193C93.3722 502.466 93.5009 501.826 93.7585 501.273C94.0161 500.72 94.4138 500.242 94.9517 499.841C95.4896 499.439 96.179 499.11 97.0199 498.852C97.8608 498.587 98.8646 498.383 100.031 498.239C100.918 498.133 101.709 498.03 102.406 497.932C103.103 497.826 103.649 497.663 104.043 497.443C104.444 497.223 104.645 496.89 104.645 496.443V495.716C104.645 494.443 104.243 493.432 103.44 492.682C102.637 491.932 101.531 491.557 100.122 491.557C98.8722 491.557 97.8191 491.833 96.9631 492.386C96.1146 492.932 95.5199 493.636 95.179 494.5L93.8722 494.011C94.2055 493.178 94.6866 492.485 95.3153 491.932C95.9517 491.379 96.679 490.966 97.4972 490.693C98.3229 490.42 99.1866 490.284 100.088 490.284C100.868 490.284 101.611 490.394 102.315 490.614C103.027 490.833 103.66 491.167 104.213 491.614C104.774 492.061 105.217 492.633 105.543 493.33C105.868 494.019 106.031 494.845 106.031 495.807V508H104.645V504.852H104.543C104.24 505.504 103.823 506.098 103.293 506.636C102.77 507.167 102.137 507.591 101.395 507.909C100.66 508.22 99.8305 508.375 98.9062 508.375ZM99.0426 507.091C100.134 507.091 101.099 506.826 101.94 506.295C102.789 505.758 103.452 505.023 103.929 504.091C104.406 503.159 104.645 502.102 104.645 500.92V498.352C104.471 498.504 104.217 498.64 103.884 498.761C103.558 498.875 103.187 498.977 102.77 499.068C102.361 499.152 101.929 499.227 101.474 499.295C101.027 499.356 100.592 499.413 100.168 499.466C98.8949 499.617 97.857 499.852 97.054 500.17C96.2585 500.481 95.6752 500.89 95.304 501.398C94.9403 501.905 94.7585 502.519 94.7585 503.239C94.7585 504.428 95.1676 505.367 95.9858 506.057C96.804 506.746 97.8229 507.091 99.0426 507.091ZM122.935 494.307L121.651 494.648C121.446 494.011 121.154 493.462 120.776 493C120.397 492.538 119.92 492.182 119.344 491.932C118.776 491.674 118.094 491.545 117.298 491.545C116.018 491.545 114.969 491.864 114.151 492.5C113.34 493.136 112.935 493.966 112.935 494.989C112.935 495.822 113.211 496.511 113.764 497.057C114.317 497.595 115.162 498.004 116.298 498.284L118.98 498.955C120.359 499.295 121.397 499.848 122.094 500.614C122.791 501.371 123.139 502.314 123.139 503.443C123.139 504.405 122.878 505.258 122.355 506C121.832 506.742 121.109 507.322 120.185 507.739C119.268 508.155 118.2 508.364 116.98 508.364C115.351 508.364 114.014 507.985 112.969 507.227C111.923 506.462 111.253 505.367 110.957 503.943L112.287 503.602C112.537 504.739 113.056 505.606 113.844 506.205C114.639 506.795 115.681 507.091 116.969 507.091C118.393 507.091 119.541 506.754 120.412 506.08C121.291 505.405 121.73 504.542 121.73 503.489C121.73 502.686 121.473 502.008 120.957 501.455C120.442 500.902 119.662 500.496 118.616 500.239L115.832 499.557C114.408 499.208 113.34 498.652 112.628 497.886C111.916 497.114 111.56 496.163 111.56 495.034C111.56 494.095 111.806 493.269 112.298 492.557C112.791 491.845 113.469 491.288 114.332 490.886C115.196 490.485 116.185 490.284 117.298 490.284C118.776 490.284 119.98 490.633 120.912 491.33C121.844 492.027 122.518 493.019 122.935 494.307ZM139.119 501.807V490.545H140.506V508H139.119V505.17H139.006C138.597 506.072 137.934 506.807 137.017 507.375C136.108 507.943 135.032 508.227 133.79 508.227C132.646 508.227 131.634 507.977 130.756 507.477C129.877 506.977 129.188 506.269 128.688 505.352C128.188 504.428 127.938 503.33 127.938 502.057V490.545H129.324V502C129.324 503.455 129.763 504.633 130.642 505.534C131.528 506.428 132.672 506.875 134.074 506.875C134.983 506.875 135.82 506.67 136.585 506.261C137.35 505.852 137.964 505.269 138.426 504.511C138.888 503.746 139.119 502.845 139.119 501.807ZM146.25 508V490.545H147.602V493.273H147.727C148.106 492.379 148.746 491.663 149.648 491.125C150.549 490.58 151.576 490.307 152.727 490.307C152.848 490.307 152.97 490.307 153.091 490.307C153.212 490.307 153.326 490.311 153.432 490.318V491.716C153.341 491.708 153.231 491.697 153.102 491.682C152.981 491.659 152.83 491.648 152.648 491.648C151.678 491.648 150.814 491.856 150.057 492.273C149.307 492.689 148.716 493.265 148.284 494C147.852 494.727 147.636 495.561 147.636 496.5V508H146.25ZM157.224 508V490.545H158.599V508H157.224ZM157.918 487.455C157.615 487.455 157.349 487.348 157.122 487.136C156.902 486.924 156.793 486.667 156.793 486.364C156.793 486.061 156.902 485.803 157.122 485.591C157.342 485.379 157.607 485.273 157.918 485.273C158.221 485.273 158.482 485.379 158.702 485.591C158.929 485.803 159.043 486.061 159.043 486.364C159.043 486.667 158.933 486.924 158.713 487.136C158.493 487.348 158.228 487.455 157.918 487.455ZM165.793 496.682V508H164.406V490.545H165.759V493.307H165.895C166.304 492.405 166.959 491.682 167.861 491.136C168.762 490.591 169.834 490.318 171.077 490.318C172.251 490.318 173.281 490.568 174.168 491.068C175.062 491.568 175.759 492.28 176.259 493.205C176.766 494.121 177.02 495.216 177.02 496.489V508H175.634V496.545C175.634 495.061 175.19 493.867 174.304 492.966C173.425 492.057 172.262 491.602 170.815 491.602C169.846 491.602 168.982 491.814 168.224 492.239C167.467 492.663 166.872 493.258 166.44 494.023C166.009 494.78 165.793 495.667 165.793 496.682ZM189.077 514.909C187.993 514.909 187.02 514.765 186.156 514.477C185.293 514.197 184.558 513.795 183.952 513.273C183.353 512.75 182.895 512.129 182.577 511.409L183.736 510.727C183.993 511.288 184.361 511.788 184.838 512.227C185.315 512.667 185.906 513.011 186.611 513.261C187.323 513.511 188.145 513.636 189.077 513.636C190.759 513.636 192.088 513.201 193.065 512.33C194.05 511.466 194.543 510.14 194.543 508.352V504.011H194.406C194.141 504.769 193.747 505.443 193.224 506.034C192.709 506.617 192.077 507.076 191.327 507.409C190.577 507.742 189.724 507.909 188.77 507.909C187.391 507.909 186.179 507.553 185.134 506.841C184.088 506.129 183.274 505.129 182.69 503.841C182.107 502.545 181.815 501.023 181.815 499.273C181.815 497.523 182.099 495.973 182.668 494.625C183.243 493.269 184.054 492.208 185.099 491.443C186.145 490.67 187.372 490.284 188.781 490.284C189.789 490.284 190.66 490.477 191.395 490.864C192.137 491.242 192.759 491.746 193.259 492.375C193.759 493.004 194.145 493.693 194.418 494.443H194.577V490.545H195.918V508.409C195.918 509.864 195.63 511.072 195.054 512.034C194.486 512.996 193.687 513.716 192.656 514.193C191.634 514.67 190.44 514.909 189.077 514.909ZM188.895 506.625C190.062 506.625 191.065 506.33 191.906 505.739C192.755 505.14 193.406 504.292 193.861 503.193C194.323 502.087 194.554 500.777 194.554 499.261C194.554 497.792 194.33 496.477 193.884 495.318C193.437 494.159 192.789 493.246 191.94 492.58C191.092 491.913 190.077 491.58 188.895 491.58C187.69 491.58 186.664 491.92 185.815 492.602C184.967 493.277 184.315 494.193 183.861 495.352C183.414 496.511 183.19 497.814 183.19 499.261C183.19 500.716 183.418 501.996 183.872 503.102C184.327 504.201 184.978 505.064 185.827 505.693C186.675 506.314 187.698 506.625 188.895 506.625Z" fill="white"/>
</svg>
